# xmcd CD database file
#
# Track frame offsets:
#	150
#	28974
#	58549
#	80817
#	116531
#	137017
#	164040
#	197495
#	226056
#	245984
#
# Disc length: 3640 seconds
#
# Revision: 0
# Processed by: cddbd v1.5.2PL0 Copyright (c) Steve Scherf et al.
# Submitted via: CDex 1.51
#
DISCID=8d0e360a
DTITLE=Brian Auger's Oblivion Express - Closer To It!
DYEAR=2006
DGENRE=Jazz
TTITLE0=Whenever You're Ready
TTITLE1=Happiness Is Just Around The Bend
TTITLE2=Light On The Path
TTITLE3=Compared To What
TTITLE4=Inner City Blues
TTITLE5=Voices Of Other Times
TTITLE6=Happiness Is Just Around The Bend (Unissued Alt. Take)
TTITLE7=Whenever You're Ready (Alt. Mix)
TTITLE8=Inner City Blues (Alt. Mix)
TTITLE9=Voices Of Our Times (Alt. Mix)
EXTD=YEAR: 2006
EXTT0=
EXTT1=
EXTT2=
EXTT3=
EXTT4=
EXTT5=
EXTT6=
EXTT7=
EXTT8=
EXTT9=
PLAYORDER=
